<svg xmlns="http://www.w3.org/2000/svg" viewBox="0 0 661.95 171.52"><defs><style>.e7807fd4-2b14-4634-b1b1-ba0e2b985b38{fill:#fff;}</style></defs><title>logo white</title><g id="fc9445b8-6266-4355-964e-220df1096cf5" data-name="Calque 2"><g id="ff9c0312-520d-4351-a788-5d24094cea58" data-name="Calque 1"><path class="e7807fd4-2b14-4634-b1b1-ba0e2b985b38" d="M50.82,8.82,86.64,120.48,122.36,8.82h50.92v160.5h-38.8V131.84l3.75-76.72-38.8,114.2H73.85L34.94,55l3.75,76.83v37.48H0V8.82Z"/><path class="e7807fd4-2b14-4634-b1b1-ba0e2b985b38" d="M191.47,108.58q0-17.86,6.95-31.8a49.61,49.61,0,0,1,20-21.44q13-7.5,30.53-7.5,26.79,0,42.22,16.59t15.43,45.14v1.32q0,27.9-15.48,44.26t-41.95,16.37q-25.45,0-40.89-15.27t-16.65-41.39Zm37.15,2.31q0,16.55,5.18,24.25t15.32,7.72q19.85,0,20.29-30.53v-3.75q0-32.08-20.51-32.08-18.63,0-20.17,27.67Z"/><path class="e7807fd4-2b14-4634-b1b1-ba0e2b985b38" d="M368.83,125.11,387.68,50h39.14L387.9,169.32H350L311.07,50h39.25Z"/><path class="e7807fd4-2b14-4634-b1b1-ba0e2b985b38" d="M437.62,19.29a16.59,16.59,0,0,1,5.73-13q5.73-5.07,14.88-5.07t14.88,5.07a16.59,16.59,0,0,1,5.73,13,16.59,16.59,0,0,1-5.73,13q-5.73,5.07-14.88,5.07T443.35,32.3A16.59,16.59,0,0,1,437.62,19.29Zm39.46,150H439.82V50h37.26Z"/><path class="e7807fd4-2b14-4634-b1b1-ba0e2b985b38" d="M610.68,110.67q0,29.33-12.12,45.09t-34.18,15.76q-18.18,0-29.32-14.44l-1.54,12.24H500.23V0h37.15V59.64q10.35-11.8,26.78-11.8,22.27,0,34.4,16t12.12,45Zm-37.26-2.37q0-17.16-4.57-24.48T554.79,76.5q-12.56,0-17.41,9.58V133.4q4.74,9.47,17.64,9.46,13.11,0,16.64-12.77Q573.42,123.82,573.42,108.3Z"/><circle class="e7807fd4-2b14-4634-b1b1-ba0e2b985b38" cx="642.95" cy="152.35" r="19"/></g></g></svg>